<svg width="65" height="65" viewBox="0 0 65 65" fill="none" xmlns="http://www.w3.org/2000/svg">
<g id="Dart">
<path id="Vector" d="M54.9103 54.3981C54.8843 54.4382 54.8382 54.4439 54.7978 54.4554C54.6364 54.6558 54.3885 54.7102 54.1693 54.8047C51.8168 55.83 49.47 56.8724 47.1232 57.909C46.9272 57.9949 46.7513 57.9692 46.561 57.9062C45.3472 57.4995 44.145 57.0671 42.937 56.6433L38.5202 55.094C35.5651 54.0602 32.61 53.0264 29.6577 51.9868C27.8847 51.3625 26.1058 50.7468 24.3328 50.1254C21.7005 49.2004 19.0597 48.2898 16.4303 47.3533C16.0123 47.2044 15.5683 47.1185 15.1906 46.8722L15.1301 46.8178C15.0529 46.695 15.0028 46.5574 14.9831 46.414C14.8318 45.7067 14.7507 44.9864 14.7409 44.2633C14.614 34.5839 14.7265 24.9074 14.6861 15.228C14.6861 15.0705 14.7121 14.9215 14.738 14.7698C14.738 14.7383 14.7553 14.7211 14.7812 14.7096C14.7911 14.7003 14.8035 14.6943 14.8169 14.6922C14.8303 14.6902 14.844 14.6922 14.8562 14.6982C15.0061 14.7755 15.107 14.9101 15.2224 15.0246L54.4634 54C54.5874 54.1232 54.6998 54.2578 54.8584 54.3408C54.8803 54.3573 54.8989 54.3777 54.9132 54.401L54.9103 54.3981ZM54.9218 54.1375C54.8931 54.1417 54.8638 54.1386 54.8366 54.1286C54.8094 54.1186 54.7852 54.102 54.7661 54.0802L54.5816 53.8969L15.1878 14.7669C15.0926 14.6724 14.9831 14.5865 14.911 14.4691C15.0048 14.3995 15.1198 14.3642 15.2368 14.3688L15.5568 14.366C25.091 14.366 34.6223 14.3631 44.1565 14.3688C45.0099 14.3688 45.8604 14.4261 46.6994 14.6094C46.8695 14.6466 47.0425 14.681 47.178 14.8013L47.2414 14.8471C47.4893 15.2451 47.5902 15.7033 47.7459 16.1358C48.9943 19.6639 50.2571 23.1863 51.4996 26.7144C52.3011 28.9882 53.1142 31.2591 53.9214 33.5301C55.2303 37.21 56.5421 40.8899 57.8423 44.5726C58.0095 45.0451 58.1623 45.5234 58.3526 45.9873C58.3943 46.0948 58.4125 46.2099 58.4061 46.3249C58.3996 46.44 58.3686 46.5523 58.3152 46.6546C57.4358 48.5962 56.5738 50.5464 55.706 52.4937C55.5013 52.9519 55.2995 53.413 55.089 53.8683C55.0458 53.9628 55.0054 54.0659 54.9218 54.1375ZM14.1729 47.2302C14.3719 47.2359 14.5391 47.339 14.7178 47.402L17.2635 48.284L22.4646 50.1082L27.0688 51.709C28.0894 52.0642 29.1071 52.4278 30.1248 52.7829L35.5276 54.6702L38.4683 55.704L43.9576 57.6227C44.9667 57.9749 45.9757 58.33 46.9848 58.6937C47.0684 58.726 47.1579 58.7401 47.2474 58.7352C47.3369 58.7302 47.4243 58.7063 47.5038 58.6651C48.311 58.2985 49.1298 57.952 49.9428 57.594C50.554 57.3277 51.1595 57.0528 51.7707 56.7836L54.7373 55.4863L55.5128 55.1484L54.0511 59.6502L53.1747 62.3765L52.5866 64.215C52.5001 64.4899 52.5001 64.4956 52.2089 64.4956L48.2908 64.4928C44.6034 64.4899 40.9189 64.5185 37.2344 64.4784C34.4003 64.4469 31.5663 64.4698 28.7323 64.4527C28.6526 64.4567 28.573 64.4432 28.4992 64.413C28.4254 64.3827 28.3593 64.3366 28.3056 64.278C28.1124 64.0718 27.9048 63.8799 27.703 63.6795L18.7425 54.8305C18.4052 54.4983 18.0708 54.1604 17.7306 53.8311C16.9089 53.0378 16.2862 52.0985 15.7384 51.1105C15.0753 49.9078 14.5477 48.6477 14.1873 47.3218C14.1787 47.2932 14.1787 47.2617 14.1758 47.233L14.1729 47.2302ZM55.5647 55.0739C55.6051 54.7675 55.7896 54.5184 55.9049 54.2435C56.1904 53.559 56.5017 52.8832 56.8044 52.2045L57.5944 50.4461L58.6813 47.9977C58.8053 47.7227 58.9264 47.4478 59.0619 47.1786C59.1053 47.1053 59.1315 47.0232 59.1385 46.9384C59.1455 46.8536 59.1331 46.7683 59.1022 46.6889C58.6784 45.5205 58.2575 44.3493 57.8423 43.1751C57.6261 42.5709 57.4214 41.9609 57.2081 41.3567L55.6743 37.0152L54.6335 34.0942L53.1257 29.8387L52.0936 26.9464L50.5079 22.4618L49.4671 19.5407C48.9626 18.1232 48.4667 16.7028 47.9564 15.2881C47.8094 14.8815 47.6479 14.4834 47.5499 14.0624C48.1669 14.1856 48.755 14.4003 49.3403 14.6266C50.8077 15.1993 52.1887 15.9296 53.4255 16.909C53.9877 17.3557 54.4778 17.8826 54.9852 18.3867C55.7233 19.1169 56.4527 19.8586 57.1908 20.5917C59.5577 22.9486 61.9218 25.3083 64.2917 27.6623C64.3611 27.725 64.4157 27.8022 64.4516 27.8884C64.4875 27.9745 64.5038 28.0675 64.4993 28.1606C64.4935 33.3898 64.4935 38.6218 64.4906 43.851L64.482 51.9381V52.0298C64.4791 52.2732 64.5281 52.2732 64.2398 52.3648L62.8531 52.803L55.8329 55.031C55.7665 55.051 55.6974 55.0653 55.6282 55.0825L55.5618 55.0682L55.5647 55.0739ZM47.6652 14.1942C47.3077 14.1283 46.9531 14.0596 46.5956 13.9966C46.2876 13.9426 45.9767 13.9072 45.6644 13.8906C43.6203 13.7789 41.5762 13.8391 39.5321 13.8362C31.1367 13.8305 22.7442 13.8333 14.3488 13.8362C14.2276 13.8371 14.1065 13.841 13.9855 13.8476L13.925 13.8362C14.4526 13.4467 15.0119 13.1031 15.5597 12.7422C16.9752 11.8058 18.3966 10.878 19.815 9.94438L28.6775 4.11382C30.1882 3.12011 31.7047 2.13498 33.2125 1.13554C33.4806 0.95799 33.7228 0.743209 34.04 0.640115C34.6915 0.422471 35.3373 0.479747 35.9802 0.665889C36.874 0.920761 37.6466 1.38755 38.3328 2.00325C38.5865 2.23235 38.8258 2.4815 39.0709 2.72205C41.3139 4.93285 43.5569 7.14651 45.8028 9.35445C45.9729 9.52055 46.0911 9.70096 46.1689 9.9272C46.6504 11.3132 47.1491 12.6964 47.6393 14.0796C47.6537 14.1168 47.6594 14.1569 47.6681 14.197L47.6652 14.1942ZM13.8789 13.9021C13.9625 14.0223 13.9221 14.1569 13.9221 14.2829L13.925 43.6047C13.925 44.2175 13.9798 44.8275 13.9999 45.4375C14.0172 45.9844 14.1326 46.5286 14.2623 47.0612C14.2854 47.1529 14.3401 47.2474 14.2883 47.3476L12.1087 46.6002C11.3735 46.3453 10.6412 46.0847 9.90315 45.8327C9.74097 45.7774 9.59461 45.684 9.47646 45.5606C7.04606 43.1207 4.60989 40.6894 2.18237 38.2495C1.37864 37.4715 0.821451 36.4771 0.579397 35.3886C0.46537 34.9063 0.474289 34.4033 0.605345 33.9253C0.662792 33.7111 0.75743 33.5086 0.884999 33.3268C1.75856 32.1154 2.55716 30.8554 3.38459 29.6182C6.59342 24.8157 9.79071 20.0075 12.9938 15.2022L13.8731 13.8992L13.8789 13.9021Z" fill="white"/>
</g>
</svg>
